<svg xmlns="http://www.w3.org/2000/svg" viewBox="0 0 64 64" width="200" height="200"><linearGradient id="a" gradientUnits="userSpaceOnUse" x1="32.001" y1="5" x2="32.001" y2="59" spreadMethod="reflect"><stop offset="0" stop-color="#1a6dff"/><stop offset="1" stop-color="#c822ff"/></linearGradient><path d="M52.398 28.797s4.444.225 4.444-2.387c0-3.412-5.917-6.488-5.917-6.488s.926-1.966 1.504-3.063c.578-1.098 2.207-5.383 2.353-6.361.184-1.23-.096-1.617-.096-1.617-.403 2.637-4.698 10.227-5.038 10.487-4.192-1.963-9.951-2.51-9.951-2.51S34.062 5 28.761 5c-5.256 0-5.23 10.154-5.23 10.154s-1.485-2.88-3.349-2.88c-2.725 0-3.619 4.119-3.619 8.584-5.381 0-9.909 1.202-10.314 1.318-.406.115-1.679 1.04-1.099.924 1.177-.377 6.707-1.231 11.548-.811.266 4.245 2.746 9.772 2.746 9.772s-5.318 7.697-5.318 13.194c0 1.447.542 4.296 4.361 4.296 3.198 0 6.878-2.125 7.555-2.515-.591.842-1.027 2.445-1.027 3.179 0 .347.134 1.052.701 1.594l2.884-2.881c-1.181-.216-1.341-1.091-1.341-1.315 0-.794.622-1.732.622-1.732s2.873-1.94 3.054-2.147l2.123 3.957s-2.173 1.287-3.881 1.287c-.215 0-.405-.018-.576-.049l-2.884 2.881c.42.402 1.073.717 2.122.717 3.168 0 6.706-2.426 6.706-2.426s3.341 5.547 6.196 8.089c.77.686 1.506.81 1.506.81s-2.837-2.73-6.575-9.761c3.473-2.145 7.091-7.204 7.091-7.204s.426.014 3.725.014c5.169 0 12.512-1.087 12.512-5.191-.001-4.234-6.602-8.061-6.602-8.061zm.577-2.55c0 1.497-1.427 1.48-1.427 1.48l-1.084.072-3.306-1.588s1.933-2.977 2.384-3.807c.345.198 3.433 2.128 3.433 3.843zM21.72 15.617c.772 0 1.528.938 1.839 1.733 0 .525.274 3.594.274 3.594l-4.461-.167c.001-4.021 1.578-5.16 2.348-5.16zm-.461 27.912c-2.437 0-2.941-1.357-2.941-2.579 0-2.766 2.21-6.634 2.21-6.634s2.475 5.203 6.798 7.4c-2.146 1.256-3.915 1.813-6.067 1.813zm13.246 3.29c-1.039-1.817-1.807-3.715-1.807-3.715s4.273.277 6.568-2.095c-1.431.644-3.711 1.454-6.367 1.21l11.524-12.08c-.237-.284-1.488-1.157-1.795-1.304-1.653 1.987-8.078 8.852-14.028 12.25-7.533-4.105-9.116-16.184-9.275-18.693l4.115.394s-1.546 2.739-1.546 4.755.241 2.122.241 2.122-.051-3.514 2.12-6.228c1.653 8.8 3.379 13.309 4.723 15.995.685-.284 1.961-.849 1.961-.849s-3.802-10.946-3.589-18.355a16.303 16.303 0 0 1 4.633-1.624 4.629 4.629 0 0 0-.35-1.422c-1.383.321-2.866.836-4.256 1.651.122-4.126 1.512-7.861 3.969-7.861 2.429 0 5.898 5.73 5.898 5.73s-2.562-.23-5.611.479c.205.474.305.948.35 1.422a13.795 13.795 0 0 1 2.523-.244c7.58 0 13.674 3.26 13.674 3.26l-2.385 3.326s-2.126-3.845-5.125-4.529c1.583 1.179 3.354 2.737 4.275 4.979-6.282-2.454-13.862-3.75-16.294-4.034-.212.896-.184 2.176-.184 2.176s10.167 1.875 17.565 6.105c-.049 9.253-10.134 16.354-11.527 17.179zm9.63-6.913s3.158-4.138 3.106-9.62c0 0 5.099 3.155 5.099 6.233.001 3.439-8.205 3.387-8.205 3.387z" fill="url(#a)"/><linearGradient id="b" gradientUnits="userSpaceOnUse" x1="30.194" y1="8.879" x2="30.194" y2="59" spreadMethod="reflect"><stop offset="0" stop-color="#6dc7ff"/><stop offset="1" stop-color="#e6abff"/></linearGradient><path d="M25.012 50.215c0-.734.437-2.337 1.027-3.179.997-.502 1.839-1.156 1.839-1.156s-.622.938-.622 1.732c0 .225.159 1.099 1.341 1.315.17.031.361.049.576.049 1.708 0 3.881-1.287 3.881-1.287-6.979 6.25-8.042 2.615-8.042 2.526zm1.132-10.928l-.084.041-.101.059a13.59 13.59 0 0 1-1.13.594c.747.662 1.577 1.268 2.497 1.735.397-.189.996-.489 1.276-.63a12.099 12.099 0 0 1-2.458-1.799zm-7.086 3.572c-.566-.506-.739-1.224-.739-1.909 0-2.766 2.21-6.634 2.21-6.634l-1.085-2.255s-5.471 8.219-.403 10.835c.01-.03.005-.003.017-.037zm33.193-5.748c-.885 2.84-8.115 2.796-8.115 2.796l-1.374 2.13s.409.012 3.207.014c-.001-.001 5.729-.468 6.282-4.94zm-6.397-4.508c-.001 0 .468.3 1.083.775.195-.964.315-1.999.304-3.093a20.412 20.412 0 0 0-1.207-.643c-.005.981-.145 1.933-.354 2.862.068.038.133.074.174.099zm7.121-6.356c0 1.497-1.427 1.48-1.427 1.48l-1.084.072 1.933.998c6.238-.255 1.442-5.104-2.854-6.392.344.197 3.432 2.127 3.432 3.842zM30.587 11.109c.242-.084.493-.135.76-.135 2.429 0 5.898 5.73 5.898 5.73l2.453.153s-.564-1.183-1.497-2.799c-1.285-2.077-5.235-4.143-7.614-2.949zm-9.115 2.245c-2.407-.254-2.337 6.666-2.099 7.424 0-4.02 1.577-5.16 2.347-5.16.772 0 1.528.938 1.839 1.733-.034-1.185-.03-2.198-.03-2.198s-.96-1.588-2.057-1.799zm8.607 5.592c.014-.47.059-.914.111-1.353a14.2 14.2 0 0 0-2.812 1.241c-.023.566.004.819-.027 1.395a16.49 16.49 0 0 1 2.723-1.131l.005-.152zm4.398 27.873c-1.039-1.817-1.807-3.715-1.807-3.715s4.273.277 6.568-2.095c-1.431.644-3.711 1.454-6.367 1.21-.562.583-1.238 1.033-1.968 1.516l2.123 3.957 1.451-.873zm1.163 2.422c.326-.201-1.127.86-1.127.86s3.341 5.547 6.196 8.089c.77.686 1.506.81 1.506.81s-2.837-2.728-6.575-9.759zM54.688 8.879c-.403 2.637-4.698 10.227-5.038 10.487-.419-.196 1.277.555 1.277.555s.926-1.966 1.504-3.063c.578-1.098 2.207-5.383 2.353-6.361.182-1.231-.096-1.618-.096-1.618zm-6.506 12.743l-2.385 3.326s-2.126-3.845-5.125-4.529c1.208.9 2.525 2.025 3.491 3.502v-.02.02c.299.458.568.946.785 1.476 1.242.473 2.315.856 2.212.814 0 0 1.933-2.977 2.384-3.807l-1.362-.782zm-24.348-.677l-4.461-.167c-.07.451-.043 1.154-.046 1.616l4.115.394s-1.546 2.739-1.546 4.755.241 2.122.241 2.122-.045-3.121 1.77-5.752c-.005-.005-.011-.007-.015-.012l.015.012c.111-.161.226-.319.35-.475-.281-1.591-.423-2.493-.423-2.493zm-7.272-.086c-5.381 0-9.909 1.202-10.314 1.318-.405.116-1.678 1.041-1.099.925 1.177-.377 6.707-1.231 11.548-.811a36.504 36.504 0 0 1-.135-1.432z" fill="url(#b)"/></svg>