<svg xmlns="http://www.w3.org/2000/svg" viewBox="0 0 100 100" width="50" height="50"><path d="M88.724 55.551c.3-.616.566-1.264.796-1.943 2.633-7.77-1.349-17.078-9.733-19.325-.906-11.383-8.906-19.193-17.941-20.525-10.341-1.525-19.814 5.044-22.966 15.485-3.799-1.346-7.501-1.182-10.99.857-1.583.732-3.031 1.812-4.33 3.233-1.907 2.086-3.147 4.719-3.652 7.495-.748.118-1.483.236-2.176.484-4.04 1.449-6.589 4.431-7.288 8.923-.435 2.797.443 5.587.933 6.714 1.935 4.455 6.422 6.98 10.981 6.312.227-.033.557.069.752.233.241 7.12 3.698 13.417 8.884 17.014 8.321 5.772 19.027 3.994 25.781-3.921 2.894 2.96 6.338 4.398 10.384 3.876 4.023-.519 7.147-2.739 9.426-6.349 1.053.283 2.051.691 3.083.804 4.042.442 7.324-1.165 9.732-4.8.922-1.391 1.794-3.194 1.793-6.354.001-3.256-1.292-6.224-3.469-8.213z" fill="#c7ede6"/><g fill="#fff"><path d="M18.389 47.587H8.358a.5.5 0 0 1 0-1h10.031a.5.5 0 0 1 0 1zM21.27 47.587h-1.446a.5.5 0 0 1 0-1h1.446a.5.5 0 0 1 0 1zM25.325 47.587h-2.546a.5.5 0 0 1 0-1h2.546a.5.5 0 0 1 0 1zM25.325 49.452h-9.616a.5.5 0 0 1 0-1h9.616a.5.5 0 0 1 0 1zM13.977 49.452h-.58a.5.5 0 0 1 0-1h.58a.5.5 0 0 1 0 1zM11.6 49.452h-1.457a.5.5 0 0 1 0-1H11.6a.5.5 0 0 1 0 1zM20.736 45.722h-5.027a.5.5 0 0 1 0-1h5.027a.5.5 0 0 1 0 1zM20.736 43.857h-1.257a.5.5 0 0 1 0-1h1.257a.5.5 0 0 1 0 1zM17.467 51.316h-1.759a.5.5 0 0 1 0-1h1.759a.5.5 0 0 1 0 1z"/></g><g fill="#fff"><path d="M74.415 25.266h-10.03a.5.5 0 0 1 0-1h10.03a.5.5 0 0 1 0 1zM77.296 25.266H75.85a.5.5 0 0 1 0-1h1.446a.5.5 0 0 1 0 1zM81.351 25.266h-2.546a.5.5 0 0 1 0-1h2.546a.5.5 0 0 1 0 1zM81.351 27.131h-9.616a.5.5 0 0 1 0-1h9.616a.5.5 0 0 1 0 1zM70.003 27.131h-.58a.5.5 0 0 1 0-1h.58a.5.5 0 0 1 0 1zM67.626 27.131H66.17a.5.5 0 0 1 0-1h1.456a.5.5 0 0 1 0 1zM76.762 23.401h-5.027a.5.5 0 0 1 0-1h5.027a.5.5 0 0 1 0 1zM76.762 21.537h-1.257a.5.5 0 0 1 0-1h1.257a.5.5 0 0 1 0 1zM73.493 28.996h-1.759a.5.5 0 0 1 0-1h1.759a.5.5 0 0 1 0 1z"/></g><path d="M74.986 48.42h10.681a4.438 4.438 0 0 0 .912-8.783c.023-.187.039-.377.039-.57a4.598 4.598 0 0 0-4.597-4.598 4.586 4.586 0 0 0-3.666 1.831 5.072 5.072 0 0 0-10.037-.573 5.167 5.167 0 0 0 .013 1.977 3.156 3.156 0 0 0-2.322-1.016 3.168 3.168 0 0 0-3.16 2.961 4.26 4.26 0 0 0-2.467.17c-1.671.627-2.861 2.2-2.93 3.983a4.439 4.439 0 0 0 4.435 4.617H72.12" fill="#fdfcef"/><path d="M85.666 48.92H74.985a.5.5 0 0 1 0-1h10.681a3.943 3.943 0 0 0 3.939-3.938 3.952 3.952 0 0 0-3.129-3.855.5.5 0 0 1-.394-.55c.021-.168.035-.337.035-.51a4.102 4.102 0 0 0-4.098-4.098 4.065 4.065 0 0 0-3.267 1.633.498.498 0 0 1-.897-.263 4.594 4.594 0 0 0-1.663-3.19 4.558 4.558 0 0 0-3.471-.997c-1.947.238-3.556 1.746-3.913 3.669-.112.6-.108 1.201.011 1.786a.501.501 0 0 1-.857.44 2.636 2.636 0 0 0-1.955-.856 2.675 2.675 0 0 0-2.661 2.493.502.502 0 0 1-.607.456 3.75 3.75 0 0 0-2.183.149c-1.499.563-2.546 1.984-2.606 3.536a3.914 3.914 0 0 0 1.096 2.888 3.909 3.909 0 0 0 2.839 1.209H72.12a.5.5 0 0 1 0 1H61.886a4.895 4.895 0 0 1-3.56-1.516 4.906 4.906 0 0 1-1.375-3.62c.076-1.948 1.383-3.729 3.254-4.433a4.759 4.759 0 0 1 2.221-.279 3.678 3.678 0 0 1 3.582-2.884c.603 0 1.194.151 1.72.432.004-.327.036-.656.097-.984.436-2.347 2.4-4.188 4.775-4.478a5.533 5.533 0 0 1 4.226 1.216 5.614 5.614 0 0 1 1.847 2.851 5.04 5.04 0 0 1 3.347-1.256 5.104 5.104 0 0 1 5.094 5.29 4.962 4.962 0 0 1 3.492 4.723 4.946 4.946 0 0 1-4.94 4.936z" fill="#472b29"/><path d="M72.413 38.641c-1.642-.108-3.055 1.026-3.157 2.533-.013.187-.004.371.023.55a1.934 1.934 0 0 0-1.324-.636c-.985-.065-1.836.586-1.959 1.471a2.837 2.837 0 0 0-.56-.095c-1.437-.094-2.674.898-2.762 2.216" fill="#fdfcef"/><path d="M62.675 44.931l-.017-.001a.25.25 0 0 1-.233-.266c.098-1.453 1.446-2.569 3.028-2.449.117.007.235.022.353.044.26-.877 1.163-1.501 2.166-1.42.376.024.73.138 1.035.329v-.011c.11-1.642 1.663-2.896 3.422-2.766a.25.25 0 0 1 .233.266c-.009.138-.128.254-.266.232-1.521-.089-2.8.935-2.891 2.301-.011.166-.004.332.021.495a.25.25 0 0 1-.434.204 1.697 1.697 0 0 0-1.153-.553c-.848-.041-1.59.497-1.696 1.256-.01.071-.05.135-.11.175s-.133.053-.203.033a2.682 2.682 0 0 0-.51-.087c-1.298-.062-2.417.806-2.497 1.984a.249.249 0 0 1-.248.234z" fill="#472b29"/><path d="M87.464 40.157c-1.543-.727-3.327-.213-3.985 1.15a2.408 2.408 0 0 0-.182.521" fill="#fdfcef"/><path d="M83.296 42.078a.25.25 0 0 1-.243-.306c.044-.197.112-.39.201-.573.716-1.483 2.654-2.052 4.317-1.269a.25.25 0 0 1 .12.333.252.252 0 0 1-.333.12c-1.417-.669-3.056-.205-3.654 1.032a2.222 2.222 0 0 0-.164.468.25.25 0 0 1-.244.195z" fill="#472b29"/><path d="M65.281 69.848H39.559c-3.766 0-6.847-3.081-6.847-6.847V37.279c0-3.766 3.081-6.847 6.847-6.847h25.722c3.766 0 6.847 3.081 6.847 6.847v25.722c0 3.766-3.081 6.847-6.847 6.847z" fill="#4985c1"/><path d="M65.281 70.548H39.559c-4.162 0-7.547-3.386-7.547-7.548V37.279c0-4.162 3.386-7.548 7.547-7.548h25.722c4.162 0 7.547 3.386 7.547 7.548v25.722c0 4.162-3.386 7.547-7.547 7.547zM39.559 31.131a6.154 6.154 0 0 0-6.147 6.147V63a6.153 6.153 0 0 0 6.147 6.147h25.722A6.154 6.154 0 0 0 71.428 63V37.279a6.153 6.153 0 0 0-6.147-6.147H39.559z" fill="#472b29"/><path d="M63.764 67.033H41.076c-3.052 0-5.549-2.497-5.549-5.549V38.796c0-3.052 2.497-5.549 5.549-5.549h22.688c3.052 0 5.549 2.497 5.549 5.549v22.688c0 3.052-2.497 5.549-5.549 5.549z" fill="#fdfcee"/><path d="M64.178 67.382H40.661a5.49 5.49 0 0 1-5.484-5.483V38.382a5.49 5.49 0 0 1 5.484-5.484h22.395a.35.35 0 1 1 0 .7H40.661a4.79 4.79 0 0 0-4.784 4.785v23.518a4.79 4.79 0 0 0 4.784 4.784h23.517a4.79 4.79 0 0 0 4.784-4.784V48.888a.35.35 0 0 1 .7 0v13.011a5.489 5.489 0 0 1-5.484 5.483z" fill="#472b29"/><path d="M69.312 47.361a.35.35 0 0 1-.35-.35v-2.502a.35.35 0 0 1 .7 0v2.502a.348.348 0 0 1-.35.35zM69.312 43.607a.35.35 0 0 1-.35-.35v-1.251a.35.35 0 0 1 .7 0v1.251a.348.348 0 0 1-.35.35z" fill="#472b29"/><path d="M49.57 44.441v2.763h-1.9v3.166h1.9v10.132h4.433V50.37h2.604s.244-1.511.361-3.166h-3.599v-2.343c0-.35.459-.824.913-.824h2.886v-3.799H53.98c-4.516.005-4.41 3.658-4.41 4.203z" fill="#4985c1"/><path d="M54.003 60.851H49.57a.35.35 0 0 1-.35-.35v-9.782h-1.55a.35.35 0 0 1-.35-.35v-3.166a.35.35 0 0 1 .35-.35h1.55V44.44h.35l-.35-.035c-.005-1.382.391-2.481 1.176-3.271.821-.825 2.027-1.245 3.584-1.246h3.188a.35.35 0 0 1 .35.35v3.8a.35.35 0 0 1-.35.35h-2.886c-.275 0-.563.329-.563.474v1.993h3.249a.35.35 0 0 1 .349.374 40.715 40.715 0 0 1-.365 3.197.35.35 0 0 1-.346.294h-2.254v9.782a.348.348 0 0 1-.349.349zm-4.083-.699h3.732V50.37a.35.35 0 0 1 .35-.35h2.303c.068-.463.197-1.416.285-2.467h-3.22a.35.35 0 0 1-.35-.35V44.86c0-.57.649-1.173 1.264-1.173h2.536v-3.101h-2.838c-1.364.002-2.403.352-3.088 1.04-.649.652-.977 1.586-.972 2.774V47.202a.35.35 0 0 1-.35.35h-1.55v2.467h1.55a.35.35 0 0 1 .35.35v9.783z" fill="#472b29"/><path d="M42.147 72.361h3.215c1.916 0 3.469-1.52 3.469-3.396 0-1.636-1.182-3.001-2.756-3.323.018-.143.031-.288.031-.436 0-1.942-1.609-3.517-3.593-3.517a3.608 3.608 0 0 0-2.865 1.401c-.168-2.162-2.141-3.83-4.45-3.554-1.688.202-3.084 1.479-3.395 3.116a3.86 3.86 0 0 0 .01 1.512 2.494 2.494 0 0 0-1.814-.777c-1.313 0-2.385 1.001-2.47 2.265a3.398 3.398 0 0 0-1.928.13c-1.306.48-2.236 1.683-2.29 3.047-.077 1.937 1.504 3.532 3.467 3.532H34.776m1.489 0h.327" fill="#fdfcef"/><path d="M45.362 72.861h-3.215a.5.5 0 0 1 0-1h3.215c1.637 0 2.969-1.299 2.969-2.896 0-1.362-.991-2.554-2.356-2.833a.5.5 0 0 1-.396-.553c.016-.123.026-.247.026-.374 0-1.663-1.388-3.017-3.093-3.017-.977 0-1.877.439-2.469 1.207a.5.5 0 0 1-.894-.266 3.336 3.336 0 0 0-1.227-2.333 3.525 3.525 0 0 0-2.665-.764c-1.476.177-2.694 1.292-2.963 2.712-.084.443-.081.887.008 1.318a.501.501 0 0 1-.853.445 1.98 1.98 0 0 0-1.451-.621c-1.038 0-1.903.79-1.971 1.798a.499.499 0 0 1-.604.455 2.89 2.89 0 0 0-1.65.112c-1.128.414-1.917 1.458-1.963 2.598a2.84 2.84 0 0 0 .8 2.095 2.977 2.977 0 0 0 2.167.916h7.998a.5.5 0 0 1 0 1h-7.998a4.02 4.02 0 0 1-2.888-1.224 3.828 3.828 0 0 1-1.078-2.827c.062-1.539 1.113-2.944 2.617-3.497a3.893 3.893 0 0 1 1.688-.229c.332-1.268 1.507-2.197 2.882-2.197.431 0 .855.094 1.241.269.01-.199.035-.398.072-.597.35-1.844 1.923-3.291 3.827-3.519a4.472 4.472 0 0 1 3.418.983 4.349 4.349 0 0 1 1.399 2.047 4.102 4.102 0 0 1 2.557-.882c2.257 0 4.093 1.802 4.093 4.017v.06c1.604.52 2.727 2.012 2.727 3.7-.001 2.15-1.782 3.897-3.97 3.897zm-8.77 0h-.327a.5.5 0 0 1 0-1h.327a.5.5 0 0 1 0 1z" fill="#472b29"/><path d="M43.811 67.568a.25.25 0 0 1-.244-.305c.034-.15.086-.299.156-.439.554-1.123 2.083-1.539 3.41-.925a.25.25 0 1 1-.21.453c-1.081-.497-2.316-.188-2.752.692a1.457 1.457 0 0 0-.116.328.25.25 0 0 1-.244.196zM39.126 72.861h-1.005a.5.5 0 0 1 0-1h1.005a.5.5 0 0 1 0 1z" fill="#472b29"/></svg>