<svg xmlns="http://www.w3.org/2000/svg" viewBox="0 0 100 100" width="50" height="50"><path d="M87.215 56.71A15.423 15.423 0 0 0 89 49.5c0-6.621-4.159-12.257-10.001-14.478L79 35c0-11.598-9.402-21-21-21-9.784 0-17.981 6.701-20.313 15.757A14.982 14.982 0 0 0 33 29c-7.692 0-14.023 5.793-14.89 13.252C12.906 43.353 9 47.969 9 53.5 9 59.851 14.149 65 20.5 65c.177 0 .352-.012.526-.022-.004.175-.026.346-.026.522C21 76.822 30.178 86 41.5 86c6.437 0 12.175-2.972 15.934-7.614A11.948 11.948 0 0 0 66 82c4.65 0 8.674-2.65 10.666-6.518 1.052.335 2.171.518 3.334.518 6.075 0 11-4.925 11-11 0-3.311-1.47-6.273-3.785-8.29z" fill="#c7ede6"/><path d="M77.5 60.5v.5h3v-.5H86a4.5 4.5 0 0 0 4.5-4.5c0-2.333-1.782-4.229-4.055-4.455.022-.181.055-.358.055-.545a4.5 4.5 0 0 0-4.5-4.5c-1.438 0-2.703.686-3.527 1.736-.14-2.636-2.302-4.736-4.973-4.736a5 5 0 0 0-5 5c0 .446.077.87.187 1.282A3.477 3.477 0 0 0 66 48.5a3.489 3.489 0 0 0-3.455 3.055c-.181-.022-.358-.055-.545-.055a4.5 4.5 0 0 0 0 9h15.5z" fill="#fdfcef"/><path d="M73.5 43a5.506 5.506 0 0 0-5.5 5.5v.047A3.933 3.933 0 0 0 66 48a3.998 3.998 0 0 0-3.858 3.005A2.22 2.22 0 0 0 62 51c-2.757 0-5 2.243-5 5s2.243 5 5 5h15.5a.5.5 0 0 0 0-1H62c-2.206 0-4-1.794-4-4s1.794-4 4-4c.117 0 .23.017.343.032l.141.019a.502.502 0 0 0 .557-.433A2.996 2.996 0 0 1 66 49c.885 0 1.723.401 2.301 1.1a.503.503 0 0 0 .614.126.5.5 0 0 0 .254-.573A4.45 4.45 0 0 1 69 48.5c0-2.481 2.019-4.5 4.5-4.5 2.381 0 4.347 1.872 4.474 4.263a.5.5 0 0 0 .893.282A3.97 3.97 0 0 1 82 47c2.206 0 4 1.794 4 4 0 .117-.017.23-.032.343l-.019.141a.5.5 0 0 0 .446.558A3.976 3.976 0 0 1 90 56c0 2.206-1.794 4-4 4h-5.5a.5.5 0 0 0 0 1H86c2.757 0 5-2.243 5-5a4.966 4.966 0 0 0-4.003-4.877L87 51c0-2.757-2.243-5-5-5a4.932 4.932 0 0 0-3.183 1.164A5.486 5.486 0 0 0 73.5 43z" fill="#472b29"/><path d="M72 50c-1.403 0-2.609.999-2.913 2.341A2.344 2.344 0 0 0 67.875 52a2.377 2.377 0 0 0-2.353 2.068 2.628 2.628 0 0 0-.584-.068 2.94 2.94 0 0 0-2.918 2.732.25.25 0 0 0 .231.268h.018a.25.25 0 0 0 .249-.232 2.44 2.44 0 0 1 2.419-2.268c.229 0 .47.042.738.127.022.007.045.01.067.01a.26.26 0 0 0 .258-.262c0-1.034.841-1.875 1.875-1.875.447 0 .885.168 1.231.473a.252.252 0 0 0 .165.063.231.231 0 0 0 .093-.019.247.247 0 0 0 .155-.212C69.623 51.512 70.712 50.5 72 50.5c.208 0 .425.034.682.107a.25.25 0 0 0 .137-.481A2.94 2.94 0 0 0 72 50zM85.883 51.5a3.007 3.007 0 0 0-2.874 2.182.25.25 0 1 0 .481.136A2.505 2.505 0 0 1 85.883 52c.117 0 .23.014.342.029a.251.251 0 0 0 .281-.214.249.249 0 0 0-.214-.281 3.063 3.063 0 0 0-.409-.034z" fill="#472b29"/><path d="M15.5 51h-10a.5.5 0 0 1 0-1h10a.5.5 0 0 1 0 1zM18.5 51h-1a.5.5 0 0 1 0-1h1a.5.5 0 0 1 0 1zM23.491 53H14.5a.5.5 0 0 1 0-1h8.991a.5.5 0 0 1 0 1zM12.5 53h-1a.5.5 0 0 1 0-1h1a.5.5 0 0 1 0 1zM9.5 53h-2a.5.5 0 0 1 0-1h2a.5.5 0 0 1 0 1zM15.5 55h-2a.5.5 0 0 1 0-1h2a.5.5 0 0 1 0 1zM18.5 46h-1a.5.5 0 0 0 0 1h1a.5.5 0 0 0 0-1zM18.5 48h-5a.5.5 0 0 0 0 1h5a.5.5 0 0 0 0-1zM23.5 50h-3a.5.5 0 0 0 0 1h3a.5.5 0 0 0 0-1z" fill="#fff"/><g><path d="M72.5 24h-10a.5.5 0 0 1 0-1h10a.5.5 0 0 1 0 1zM76.5 24h-2a.5.5 0 0 1 0-1h2a.5.5 0 0 1 0 1zM81.5 26h-10a.5.5 0 0 1 0-1h10a.5.5 0 0 1 0 1zM69.5 26h-1a.5.5 0 0 1 0-1h1a.5.5 0 0 1 0 1zM66.47 26H64.5a.5.5 0 0 1 0-1h1.97a.5.5 0 0 1 0 1zM75.5 22h-5a.5.5 0 0 1 0-1h5a.5.5 0 0 1 0 1zM72.5 28h-2a.5.5 0 0 1 0-1h2a.5.5 0 0 1 0 1z" fill="#fff"/></g><g><circle cx="52" cy="50" r="23.25" fill="#48bed8"/><path d="M52 73.95c-13.206 0-23.95-10.744-23.95-23.95S38.794 26.05 52 26.05 75.95 36.794 75.95 50 65.206 73.95 52 73.95zm0-46.5c-12.434 0-22.55 10.115-22.55 22.55S39.566 72.55 52 72.55 74.55 62.435 74.55 50 64.434 27.45 52 27.45z" fill="#472b29"/></g><g><path d="M70.623 44.987a.5.5 0 0 1-.478-.353 18.61 18.61 0 0 0-1.679-3.852.499.499 0 1 1 .865-.5 19.669 19.669 0 0 1 1.77 4.057.5.5 0 0 1-.478.648z" fill="#472b29"/></g><g><path d="M52 70.035c-11.047 0-20.035-8.961-20.035-19.976 0-11.014 8.987-19.975 20.035-19.975a20.083 20.083 0 0 1 15.838 7.74.5.5 0 0 1-.789.613 19.081 19.081 0 0 0-15.048-7.353c-10.496 0-19.035 8.512-19.035 18.975S41.504 69.035 52 69.035s19.035-8.513 19.035-18.976c0-.955-.072-1.912-.213-2.846a.5.5 0 0 1 .989-.15c.149.983.224 1.991.224 2.996 0 11.015-8.988 19.976-20.035 19.976z" fill="#472b29"/></g><g><path d="M36.5 73.5H40a3.5 3.5 0 0 0 3.5-3.5 3.489 3.489 0 0 0-3.055-3.455c.028-.179.055-.358.055-.545a3.5 3.5 0 0 0-3.5-3.5c-1.032 0-1.95.455-2.59 1.165a3.999 3.999 0 0 0-7.91.835c0 .191.03.374.056.558A2.473 2.473 0 0 0 25 64.5a2.496 2.496 0 0 0-2.455 2.055A3.495 3.495 0 0 0 22 66.5a3.5 3.5 0 1 0 0 7h7.5v.5h7v-.5z" fill="#fdfcef"/><path d="M38.25 69a.25.25 0 0 1-.25-.25 2.22 2.22 0 0 1 2.218-2.218c.034.009.737-.001 1.244.136a.25.25 0 0 1-.13.482c-.444-.12-1.1-.12-1.113-.118A1.72 1.72 0 0 0 38.5 68.75a.25.25 0 0 1-.25.25z" fill="#472b29"/><circle cx="31.5" cy="73.5" r=".5" fill="#472b29"/><path d="M40 74h-3.5a.5.5 0 0 1 0-1H40c1.654 0 3-1.346 3-3a2.996 2.996 0 0 0-2.618-2.959.502.502 0 0 1-.43-.573c.023-.154.048-.308.048-.468 0-1.654-1.346-3-3-3-.85 0-1.638.355-2.219 1a.498.498 0 0 1-.86-.231A3.514 3.514 0 0 0 30.5 61c-1.93 0-3.5 1.57-3.5 3.5 0 .143.021.28.041.418.029.203-.063.438-.242.54-.179.102-.396.118-.556-.01A1.97 1.97 0 0 0 25 65c-.966 0-1.792.691-1.963 1.644a.498.498 0 0 1-.569.405C22.314 67.025 22.16 67 22 67c-1.654 0-3 1.346-3 3s1.346 3 3 3h7.5a.5.5 0 0 1 0 1H22c-2.206 0-4-1.794-4-4a4.004 4.004 0 0 1 4.174-3.994A2.993 2.993 0 0 1 25 64c.349 0 .689.061 1.011.18A4.506 4.506 0 0 1 30.5 60a4.523 4.523 0 0 1 4.153 2.774A3.979 3.979 0 0 1 37 62a4.004 4.004 0 0 1 3.996 4.142A3.999 3.999 0 0 1 44 70c0 2.206-1.794 4-4 4z" fill="#472b29"/><path d="M34.5 73h-1a.5.5 0 0 0 0 1h1a.5.5 0 0 0 0-1z" fill="#472b29"/></g><g><path d="M50.798 57.788l-4.001 3.695s-.312.24-.655.09l.766-6.864 3.89 3.079z" fill="#b5cfe4"/><path d="M46.375 61.871a.834.834 0 0 1-.333-.07l-.168-.073.837-7.495 4.472 3.541-4.216 3.893a1.018 1.018 0 0 1-.592.204zm.731-6.687l-.69 6.187a.513.513 0 0 0 .228-.086l3.77-3.481-3.308-2.62z" fill="#472b29"/><path d="M63.72 39.438l-4.384 22.387s-.613 1.553-2.299.807L46.92 54.776l-3.679-1.801-6.193-2.111s-.951-.341-1.043-1.086c-.092-.745 1.073-1.149 1.073-1.149l24.62-9.781c-.002-.001 2.022-.901 2.022.59z" fill="#fff"/><path d="M57.899 63.085a2.38 2.38 0 0 1-.963-.225l-10.169-7.887-3.636-1.773-6.164-2.1c-.048-.017-1.101-.404-1.21-1.292-.116-.936 1.183-1.396 1.238-1.416l24.609-9.776.002.006c.323-.18 1.147-.374 1.634-.247.272.073.729.309.729 1.063l-.005.048-4.384 22.387c-.024.074-.314.792-1.037 1.088a1.705 1.705 0 0 1-.644.124zm4.02-24.058v.002l-.129.052-24.62 9.78c-.02.007-.981.359-.917.887.072.581.871.878.879.881l6.188 2.11 3.708 1.813 10.161 7.883c.407.173.815.205 1.16.064.524-.213.751-.762.754-.768l4.366-22.317c-.006-.361-.157-.459-.208-.491-.334-.217-1.027-.015-1.342.104z" fill="#472b29"/><g><path d="M46.141 61.572s-.295-.028-.664-1.208c-.368-1.18-2.238-7.39-2.238-7.39l14.87-9.564s.858-.528.828 0c0 0 .153.093-.307.528s-11.682 10.65-11.682 10.65l-.807 6.984z" fill="#d2e5f1"/><path d="M46.361 61.845l-.244-.023c-.21-.021-.533-.276-.878-1.384C44.871 59.259 43 53.047 43 53.047l-.055-.181.159-.102 14.87-9.564c.205-.126.705-.394 1.01-.212a.42.42 0 0 1 .2.323l.026.121c.02.19-.106.402-.407.688-.442.419-10.585 9.652-11.616 10.591l-.826 7.134zm-2.829-8.762c.31 1.028 1.853 6.147 2.184 7.206.09.288.174.499.246.652l.749-6.475.069-.063c.112-.103 11.226-10.219 11.678-10.647a1.57 1.57 0 0 0 .223-.247l.004-.08a1.655 1.655 0 0 0-.446.193l-14.707 9.461z" fill="#472b29"/></g></g><g><path d="M57.898 63.335c-.337 0-.693-.082-1.064-.246l-.091-.052-6.111-4.423-3.496 3.235c-.088.07-.569.421-1.143.202-.563-.158-.883-1.184-.995-1.54-.319-1.022-1.769-5.832-2.148-7.091l-.017-.056-5.948-2.027c-.058-.021-1.25-.46-1.377-1.499-.138-1.114 1.247-1.628 1.405-1.683l24.598-9.772.003.008c.445-.237 1.316-.385 1.79-.258.582.156.915.631.915 1.304L59.827 61.92c-.06.174-.382.94-1.188 1.271a1.94 1.94 0 0 1-.741.144zm-.613-1.141c.375.157.7.181.967.074.424-.17.618-.627.62-.632l4.357-22.295c-.009-.016-.025-.159-.102-.208-.184-.121-.667-.031-1.03.094l-24.834 9.866c-.301.106-.789.397-.761.622.043.354.545.615.717.679l6.405 2.184.083.221.102.333c.379 1.258 1.827 6.061 2.146 7.083.195.625.347.843.398.903.061.018.138-.031.139-.032l4.063-3.763 6.73 4.871z" fill="#472b29"/></g></svg>